<svg xmlns="http://www.w3.org/2000/svg" viewBox="0 0 100 36"><path d="M10.18,12.3,15,11.74l.35-6.17L2.76,7,1.23,34.34,9,33.43l.63-11.1,4.26-.5.33-5.89-4.26.5Zm-8,21.06L3.59,7.82l10.8-1.27L14.14,11l-4.78.56L9,17.41l4.26-.5-.23,4.15-4.26.5-.62,11.1Z"/><path d="M23.76,24.3a10.41,10.41,0,0,1-.3,2.38.58.58,0,0,1-.19.25A.54.54,0,0,1,23,27c-.24,0-.27-.05-.28-.07a6.52,6.52,0,0,1-.05-2.07L23.76,4.57,16,5.49l-.89,16c-.17,3-.23,5-.17,5.9a5.21,5.21,0,0,0,1,2.75A5.42,5.42,0,0,0,18.75,32a8.91,8.91,0,0,0,2.67.41h.11a15.31,15.31,0,0,0,1.53-.1A11.22,11.22,0,0,0,27,31.17a8.09,8.09,0,0,0,2.8-2.36A7.42,7.42,0,0,0,31.17,26a31.2,31.2,0,0,0,.45-4.3l1-18.15-7.76.91Zm8-19.79-1,17.17a30.38,30.38,0,0,1-.42,4.16,6.65,6.65,0,0,1-1.22,2.47,7.36,7.36,0,0,1-2.5,2.1A10.31,10.31,0,0,1,23,31.47a9.35,9.35,0,0,1-4-.28,4.56,4.56,0,0,1-2.39-1.57,4.38,4.38,0,0,1-.83-2.31c-.06-.88,0-2.83.17-5.79l.85-15.26,6-.7L21.76,24.85a7.89,7.89,0,0,0,.09,2.37,1,1,0,0,0,.47.57.93.93,0,0,0,.7.1,1.49,1.49,0,0,0,.76-.27,1.54,1.54,0,0,0,.5-.67,10.82,10.82,0,0,0,.35-2.64L25.7,5.22Z"/><polygon points="40.29 3.5 43.45 14.82 43.82 14.75 43.85 14.85 43.85 14.74 44.23 14.67 44.88 2.95 49.77 2.38 49.53 6.69 50.4 6.66 50.69 1.4 44.06 2.19 43.52 11.81 40.93 2.55 34.43 3.32 32.9 30.61 39.54 29.83 40.07 20.32 42.29 29.14 42.38 29.49 44.58 29.24 44.55 28.37 43.04 28.55 40.16 17.09 39.79 17.15 39.76 17.01 39.75 17.16 39.38 17.23 38.71 29.06 33.83 29.63 35.26 4.09 40.29 3.5"/><path d="M54.21,6.52l-7.76.91-1.53,27.3,12-1.41.34-6.16L53,27.65Zm1.83,26-10.2,1.2L47.28,8.21l6-.71L52.1,28.63l4.19-.49Z"/><path d="M57.67,33.23l7.76-.92L67,5l-7.76.91ZM66,6,64.61,31.54l-6,.71L60,6.7Z"/><path d="M78,3.71,77.2,9c-.39,2.49-.78,5.22-1.18,8.16-.13-3.79-.34-8-.63-12.71l0-.44L67.22,5l2.54,26.38,0,.43L81,30.47,86.18,2.75ZM70.59,30.84,68.17,5.74,74.55,5c.42,6.91.67,12.89.75,17.8v.26l.84,0,0-.21c.64-5.12,1.28-9.72,1.89-13.68l.71-4.63,6.36-.75L80.3,29.69Z"/><path d="M98.42,7.43l.35-6.16L86.4,2.73,84.87,30,97.7,28.51l.35-6.16L93,23,93.26,18l4.3-.51.33-5.9-4.3.51L93.82,8ZM92.05,23.92l5.06-.59-.25,4.41L85.79,29,87.23,3.5,97.84,2.25,97.6,6.66,93,7.2l-.33,5.89L97,12.58l-.24,4.15-4.31.51Z"/></svg>