<svg xmlns="http://www.w3.org/2000/svg" viewBox="0 0 100 36"><path d="M1.5,34.06,3,7.27,15.05,5.85l-.33,5.66-4.78.57-.26,4.64,4.26-.5-.3,5.39-4.26.5L8.76,33.2ZM3.35,7.6,1.89,33.65l6.52-.77L9,21.79l4.26-.51.26-4.66-4.26.5.31-5.37,4.78-.57.27-4.92Z"/><path d="M21.53,32.17a8.89,8.89,0,0,1-2.71-.39A5.16,5.16,0,0,1,16.14,30a5,5,0,0,1-1-2.62c-.06-.92,0-2.9.17-5.87l.88-15.8,7.26-.85-1.12,20A6.86,6.86,0,0,0,22.43,27c.05.16.17.32.55.28a.71.71,0,0,0,.43-.14.76.76,0,0,0,.28-.36A10.79,10.79,0,0,0,24,24.3l1.1-19.63,7.26-.86-1,17.86a32.19,32.19,0,0,1-.44,4.27,7.25,7.25,0,0,1-1.34,2.71A7.89,7.89,0,0,1,26.86,31,10.66,10.66,0,0,1,23,32.07C22.54,32.13,22,32.16,21.53,32.17ZM16.59,6,15.73,21.5c-.17,3-.23,4.92-.17,5.83a4.58,4.58,0,0,0,.88,2.44A4.8,4.8,0,0,0,19,31.43a9.65,9.65,0,0,0,4.07.29,10.88,10.88,0,0,0,3.7-1.08,7.75,7.75,0,0,0,2.58-2.18,6.91,6.91,0,0,0,1.27-2.56A31.43,31.43,0,0,0,31,21.69L32,4.23,25.46,5,24.38,24.3A10.68,10.68,0,0,1,24,26.88a1.08,1.08,0,0,1-.41.53,1.1,1.1,0,0,1-.63.23.73.73,0,0,1-.56-.07.72.72,0,0,1-.35-.43A7.44,7.44,0,0,1,22,24.88l1.1-19.61Z"/><path d="M33.17,30.33l1.5-26.79,6.08-.71,0,.13,2.89,10.37L44.3,2.41l6.13-.73-.27,4.74h-.37L50,2.1l-5.4.63L44,14.46l-.36.07L40.47,3.22,35,3.86,33.56,29.92,39,29.28l.67-11.84.36-.06,2.87,11.44,1.46-.17V29l-1.75.21,0-.14L39.91,18.66,39.3,29.6Z"/><path d="M45.18,34.45,46.69,7.66l7.25-.86L52.77,27.94l4.19-.5-.32,5.66ZM47,8,45.57,34l10.71-1.26.28-4.92-4.2.5L53.55,7.21Z"/><path d="M57.93,32.94v-.2l1.5-26.58L66.7,5.3v.2l-1.5,26.59ZM59.79,6.48,58.33,32.53l6.51-.76L66.31,5.71Z"/><path d="M70,31.52l0-.17L67.49,5.21l7.64-.9,0,.17c.36,6,.6,11.29.72,15.8.53-4.12,1.06-7.88,1.58-11.22l.77-5.12L85.87,3l0,.22-5,27Zm-2.13-26,2.46,25.59,10.15-1.19L85.43,3.46l-6.89.81-.73,4.82c-.62,4-1.26,8.59-1.89,13.69h-.37c-.08-5-.34-11-.76-18.08Z"/><path d="M85.14,29.74v-.2L86.64,3,98.5,1.55l-.32,5.66-4.6.54-.26,4.64,4.31-.51-.31,5.4-4.3.51-.3,5.44,5.06-.6-.32,5.66ZM87,3.28,85.52,29.33,97.1,28,97.38,23l-5.06.6.35-6.18L97,17l.26-4.66-4.3.5.3-5.37,4.6-.54L98.11,2Z"/></svg>