<svg xmlns="http://www.w3.org/2000/svg" viewBox="0 0 100 100">
  <path d="M84.547,84.547l-5.525-1.628.923,5.686L74.667,86.3l.2,5.758L69.923,89.1,69.4,94.839,64.865,91.29l-1.234,5.627-4.058-4.089-1.93,5.428L54.13,93.69l-2.6,5.143-2.913-4.97L45.4,98.641l-2.267-5.3-3.793,4.336-1.585-5.539L33.45,95.969l-.879-5.693-4.752,3.256-.158-5.758-5.123,2.635.565-5.733L17.69,86.648l1.279-5.617L13.352,82.31,15.324,76.9l-5.733.565,2.635-5.123-5.758-.158,3.256-4.752L4.031,66.55l3.827-4.307L2.319,60.658l4.336-3.793L1.359,54.6l4.778-3.22-4.97-2.913,5.143-2.6L1.744,42.357l5.428-1.93L3.083,36.369,8.71,35.135,5.161,30.6l5.737-.519L7.946,25.13l5.758.2L11.4,20.055l5.686.923-1.628-5.525,5.525,1.628L20.055,11.4,25.333,13.7l-.2-5.758L30.077,10.9,30.6,5.161,35.135,8.71l1.234-5.627,4.058,4.089,1.93-5.428L45.87,6.31l2.6-5.143,2.913,4.97L54.6,1.359l2.267,5.3,3.793-4.336,1.585,5.539L66.55,4.031l.879,5.693,4.752-3.256.158,5.758,5.123-2.635L76.9,15.324l5.413-1.972-1.279,5.617,5.617-1.279L84.676,23.1l5.733-.565-2.635,5.123,5.758.158-3.256,4.752,5.693.879-3.827,4.307,5.539,1.585-4.336,3.793,5.3,2.267-4.778,3.22,4.97,2.913-5.143,2.6,4.566,3.513-5.428,1.93,4.089,4.058L91.29,64.865,94.839,69.4l-5.737.519,2.952,4.947-5.758-.2,2.309,5.278-5.686-.923Z"/>
</svg>